<?xml version="1.0" standalone="no"?>
<!DOCTYPE svg PUBLIC "-//W3C//DTD SVG 20010904//EN"
 "http://www.w3.org/TR/2001/REC-SVG-20010904/DTD/svg10.dtd">
<svg version="1.0" xmlns="http://www.w3.org/2000/svg"
 width="512.000000pt" height="512.000000pt" viewBox="0 0 512.000000 512.000000"
 preserveAspectRatio="xMidYMid meet">
<metadata>
Created by potrace 1.14, written by Peter Selinger 2001-2017
</metadata>
<g transform="translate(0.000000,512.000000) scale(0.100000,-0.100000)"
fill="#000000" stroke="none">
<path d="M4447 5082 c-10 -2 -30 -10 -44 -17 -19 -10 -30 -11 -43 -3 -27 17
-69 2 -76 -28 -6 -21 -10 -24 -34 -19 -46 10 -80 -41 -80 -120 0 -13 -10 -29
-24 -38 -36 -24 -68 -94 -74 -164 -3 -42 -9 -63 -18 -63 -7 0 -19 -3 -28 -6
-10 -4 -16 -1 -16 9 0 8 -11 17 -24 19 -29 6 -69 -25 -81 -61 -6 -21 -9 -22
-17 -8 -17 31 -47 40 -74 22 -26 -17 -31 -46 -14 -89 9 -24 8 -25 -16 -14 -25
12 -36 6 -47 -25 -1 -5 -23 3 -48 17 -47 27 -91 27 -117 2 -16 -16 -26 -66
-12 -66 5 0 10 -7 10 -15 0 -8 -9 -15 -20 -15 -11 0 -20 -4 -20 -10 0 -5 -36
-9 -87 -8 -81 1 -145 -6 -164 -18 -4 -2 -43 -7 -86 -9 -130 -9 -213 -26 -313
-63 -25 -9 -47 -17 -50 -18 -3 0 -18 -6 -33 -12 -16 -7 -31 -12 -34 -12 -3 0
-45 -23 -94 -51 -72 -41 -92 -49 -103 -40 -11 9 -20 10 -35 1 -18 -9 -21 -8
-21 9 0 14 -9 21 -35 25 -20 4 -39 4 -44 1 -5 -3 -12 9 -16 26 -8 37 -30 47
-54 25 -16 -15 -19 -15 -24 -1 -9 23 -33 18 -56 -12 -12 -16 -20 -22 -19 -15
2 8 -5 19 -15 25 -15 10 -21 8 -36 -12 -11 -14 -30 -25 -45 -26 -31 -1 -35 15
-6 22 11 3 23 16 26 29 3 13 15 26 25 29 10 4 19 10 19 13 0 18 -32 50 -56 56
-21 6 -23 10 -14 21 14 17 -16 69 -36 61 -9 -3 -14 2 -14 12 0 27 -28 60 -53
64 -12 2 -22 8 -22 15 0 26 -18 26 -39 0 -21 -27 -23 -27 -22 -6 1 29 -20 36
-29 10 -5 -17 -10 -18 -30 -11 -18 7 -27 6 -32 -4 -12 -20 -67 -43 -92 -39
-16 2 -24 -3 -28 -17 -3 -11 -9 -20 -14 -20 -5 0 -9 -11 -9 -24 0 -13 -7 -29
-15 -36 -12 -10 -13 -16 -4 -26 8 -10 8 -14 0 -14 -14 0 -15 -47 -1 -55 12 -7
14 -26 3 -24 -33 5 -49 -26 -28 -54 10 -13 8 -25 -9 -62 -20 -43 -22 -45 -56
-38 -19 3 -40 13 -46 21 -6 8 -21 16 -35 17 -13 1 -30 3 -37 4 -7 0 -10 6 -7
11 7 11 -35 30 -66 30 -10 0 -19 -7 -19 -15 0 -17 -16 -20 -25 -5 -10 17 -25
11 -37 -15 -8 -19 -16 -23 -34 -19 -17 4 -24 0 -29 -16 -5 -15 -12 -19 -23
-15 -39 16 -53 14 -61 -8 -5 -12 -6 -28 -4 -35 4 -8 -5 -11 -28 -8 -19 2 -40
1 -46 -1 -20 -8 -16 -43 5 -44 9 0 2 -5 -17 -12 -40 -14 -49 -47 -19 -74 23
-21 24 -37 1 -25 -20 10 -41 5 -61 -14 -10 -11 -9 -17 8 -34 24 -24 25 -30 5
-30 -25 0 -17 -38 11 -57 26 -16 26 -17 5 -25 -27 -9 -27 -34 -1 -48 18 -10
19 -13 6 -38 -13 -24 -12 -28 6 -44 11 -9 26 -14 34 -11 8 3 14 -1 14 -8 -1
-20 -38 -62 -49 -55 -5 4 -17 -1 -25 -10 -15 -14 -17 -14 -32 0 -21 21 -37 20
-52 -4 -7 -11 -18 -17 -27 -14 -22 9 -40 -16 -44 -61 -3 -48 -5 -50 -22 -32
-7 8 -21 12 -31 9 -22 -5 -39 -53 -26 -75 7 -13 5 -17 -10 -17 -27 0 -45 -24
-46 -62 -1 -22 -7 -32 -20 -34 -11 -1 -26 -9 -34 -18 -13 -12 -13 -18 -3 -30
11 -13 9 -17 -12 -25 -19 -8 -37 -29 -37 -45 0 -12 39 -44 46 -38 5 3 3 0 -3
-8 -20 -22 -15 -48 10 -52 12 -2 21 -9 19 -17 -2 -7 4 -21 13 -31 14 -15 12
-21 -21 -62 -37 -48 -48 -90 -32 -120 13 -27 40 -22 97 17 40 28 50 32 48 18
-1 -10 -6 -23 -10 -29 -4 -8 3 -14 19 -18 17 -5 24 -12 20 -21 -3 -8 3 -17 16
-21 18 -5 19 -8 5 -21 -12 -12 -21 -13 -45 -5 -34 12 -42 8 -42 -21 0 -18 -2
-18 -23 5 -35 38 -62 43 -93 19 -33 -26 -54 -27 -49 -3 9 47 -45 49 -78 2 -12
-18 -16 -19 -27 -5 -13 16 -30 5 -43 -28 -7 -18 -8 -17 -33 2 -15 12 -30 21
-34 21 -14 0 -20 -32 -9 -47 7 -7 9 -17 5 -20 -4 -4 -11 -1 -16 7 -7 12 -12
11 -29 -4 -11 -10 -20 -21 -19 -25 2 -18 -3 -22 -16 -12 -11 10 -17 7 -30 -11
-10 -15 -12 -26 -6 -32 12 -12 13 -29 1 -22 -12 8 -34 -20 -29 -36 3 -7 -1
-23 -8 -36 -12 -24 -5 -60 17 -86 5 -5 -1 -20 -11 -34 -22 -27 -26 -63 -10
-92 11 -21 64 -42 85 -34 19 8 19 -5 1 -20 -8 -6 -18 -27 -21 -46 -11 -64 43
-108 97 -79 26 14 35 4 15 -16 -20 -20 -12 -44 19 -55 20 -8 22 -13 14 -35 -5
-14 -6 -25 -1 -25 16 0 20 -41 5 -47 -8 -3 -22 -19 -30 -36 -10 -18 -19 -26
-23 -19 -4 6 -18 13 -31 14 -20 2 -28 -4 -40 -29 -18 -38 -27 -41 -32 -11 -9
63 -58 7 -60 -70 -2 -46 -4 -50 -21 -40 -22 11 -41 -7 -32 -30 3 -8 2 -19 -2
-25 -21 -34 -21 -131 0 -152 17 -17 13 -45 -7 -45 -19 0 -76 -61 -92 -98 -19
-45 -18 -101 1 -108 8 -4 12 -10 9 -15 -3 -6 7 -26 21 -45 l28 -36 -56 5 c-74
8 -87 -7 -47 -54 35 -41 36 -45 11 -52 -14 -3 -17 -11 -14 -31 3 -14 11 -26
19 -26 7 0 18 -17 24 -39 5 -21 17 -44 25 -51 13 -10 12 -14 -1 -28 -15 -14
-15 -17 6 -34 12 -10 44 -20 71 -24 27 -4 52 -11 56 -17 3 -5 2 -7 -3 -4 -12
7 -74 -22 -74 -34 0 -5 16 -9 36 -9 33 0 34 -1 19 -16 -37 -38 12 -71 59 -40
22 14 25 13 41 -4 15 -17 15 -19 -4 -25 -12 -4 -21 -15 -21 -27 0 -17 5 -20
35 -16 40 5 41 2 19 -30 -18 -26 -15 -32 15 -35 23 -1 26 -8 11 -23 -17 -17
-22 -64 -7 -64 7 0 17 4 22 9 6 5 20 12 33 16 23 7 23 7 7 -25 -21 -40 -14
-65 14 -50 31 16 44 12 38 -13 -11 -40 7 -52 72 -50 l59 2 -9 -32 c-11 -40
-11 -128 0 -146 14 -22 113 -5 160 28 41 29 46 27 49 -23 1 -25 11 -66 22 -91
18 -41 22 -46 36 -34 10 8 42 13 78 14 l61 0 6 35 c4 19 7 30 8 24 0 -6 16
-19 35 -29 30 -17 39 -17 78 -6 46 14 78 37 78 56 0 7 7 15 15 19 8 3 15 12
15 19 0 8 6 20 14 27 12 9 17 7 28 -9 16 -27 25 -26 48 1 l18 22 20 -34 c15
-24 18 -38 11 -51 -15 -29 -11 -35 28 -37 23 -2 51 -14 71 -30 60 -47 86 -62
115 -62 71 0 173 111 147 160 -6 10 -11 30 -12 44 -1 15 -6 26 -11 26 -4 0 -6
4 -3 8 3 5 -2 21 -10 36 -20 40 -18 55 11 68 14 6 25 14 25 18 0 22 241 117
346 136 13 2 34 8 48 14 34 13 170 5 236 -14 58 -16 301 -135 320 -157 3 -3
14 -12 26 -20 28 -19 133 -110 153 -131 8 -10 19 -18 24 -18 5 0 15 -6 22 -12
56 -51 102 -75 116 -61 9 9 4 26 -20 68 -18 32 -30 59 -28 62 6 6 42 -13 67
-35 25 -21 110 -43 110 -28 0 6 3 7 10 0 5 -5 30 -8 55 -6 l46 4 -22 24 c-12
13 -27 21 -33 17 -6 -3 -8 -2 -3 2 4 5 -1 17 -10 28 -20 22 -24 84 -6 91 7 3
34 -13 60 -35 34 -28 54 -38 68 -34 47 14 55 12 84 -16 26 -24 35 -28 51 -19
10 6 25 9 31 8 11 -3 59 -50 106 -105 14 -16 23 -19 34 -12 10 8 11 12 2 15
-7 3 -9 12 -6 20 3 8 0 14 -6 14 -6 0 -10 3 -9 8 0 4 -2 15 -7 25 -13 30 2 36
91 39 37 1 57 -3 69 -15 38 -39 75 -44 75 -11 0 22 13 17 42 -19 33 -43 85
-69 110 -56 9 5 15 16 12 23 -8 21 12 28 30 10 14 -14 16 -14 16 0 0 16 -21
68 -31 76 -3 3 -8 13 -12 22 -13 35 16 29 59 -13 36 -36 50 -43 78 -41 30 2
38 -3 67 -43 18 -25 36 -46 41 -46 41 -6 43 -4 41 39 -1 25 -14 69 -29 100
-16 32 -29 59 -30 62 -7 26 -30 70 -37 70 -4 0 -5 5 -2 10 3 6 2 10 -3 10 -13
0 -113 208 -121 252 -2 11 -6 24 -30 101 -12 38 -24 87 -27 110 -10 74 -11 82
-23 110 -6 15 -8 27 -5 27 4 0 1 7 -6 15 -19 23 -3 31 20 10 20 -18 21 -18 34
0 9 12 15 15 20 7 16 -27 52 -11 47 21 0 4 4 7 10 7 5 0 7 5 4 11 -4 6 3 5 14
-3 18 -11 23 -11 31 2 5 8 10 23 10 33 0 13 5 17 18 13 13 -5 22 1 30 18 9 21
17 24 46 22 31 -3 36 0 47 27 13 31 13 31 19 7 7 -31 26 -37 33 -10 4 17 9 19
32 10 35 -13 47 -5 39 27 -6 23 -4 25 12 19 34 -13 39 -11 39 14 0 18 5 24 17
22 21 -3 35 18 18 28 -10 6 -9 12 5 26 18 18 17 19 -6 25 -13 4 -18 7 -12 8 7
1 16 13 19 28 8 32 32 63 49 63 23 0 58 48 52 71 -3 13 0 28 9 37 10 10 12 18
5 25 -12 12 -6 29 34 93 34 53 50 91 47 110 -1 5 11 9 27 8 25 -2 30 2 35 28
9 48 7 65 -11 83 -15 16 -14 17 18 13 30 -3 34 0 37 23 2 16 12 30 27 37 39
18 65 45 65 69 0 13 6 23 13 24 49 3 84 28 88 64 4 35 -12 73 -38 90 -18 12
-22 20 -14 29 13 15 -13 56 -35 56 -8 0 -14 5 -14 12 0 6 3 8 7 5 15 -15 43
27 43 65 0 32 -5 41 -31 57 l-30 19 25 6 c32 8 88 55 83 70 -4 11 -8 12 -49
15 -26 1 -16 14 15 18 29 4 52 34 35 44 -9 6 -8 13 5 27 17 19 17 21 1 55 -14
30 -15 41 -6 62 10 21 9 28 -7 44 -19 19 -20 19 -70 0 -28 -10 -51 -16 -52
-11 -1 4 0 23 1 43 2 42 -16 54 -56 39 -35 -14 -37 -13 -20 11 16 24 11 49
-10 49 -19 0 -14 71 6 87 8 6 16 16 16 22 1 6 2 16 3 21 0 6 4 9 9 8 8 -1 38
9 62 21 8 4 31 6 51 3 44 -5 53 6 33 42 -18 36 -18 36 5 36 23 0 35 31 26 61
-5 15 -1 25 13 35 20 14 21 22 6 72 -4 13 -3 22 2 21 39 -7 47 31 13 55 l-22
15 26 6 c29 8 41 39 24 69 -6 12 -10 26 -8 31 8 25 8 91 -1 102 -6 7 -4 14 5
20 15 8 21 25 18 51 0 7 -14 18 -31 23 -16 6 -30 17 -30 25 0 8 -8 19 -18 25
-13 8 -17 20 -14 40 4 24 0 29 -24 36 -16 4 -32 7 -36 8 -4 0 -16 10 -28 23
-23 24 -54 29 -66 10 -6 -9 -10 -5 -14 12 -3 14 -15 29 -27 34 -13 6 -20 19
-20 35 0 22 -20 45 -46 54 -6 2 -2 15 8 31 10 15 23 51 30 79 15 66 3 107 -30
107 -13 0 -27 -4 -30 -10 -3 -5 -10 -10 -15 -10 -5 0 -1 15 10 33 16 27 18 39
10 68 -6 18 -20 41 -31 50 -18 13 -19 19 -10 37 14 26 14 72 0 72 -6 0 -3 7 5
16 14 13 19 30 18 54 -1 19 -12 80 -18 93 -5 15 -40 33 -56 29 -15 -4 -41 64
-41 106 1 35 -5 49 -30 73 -21 21 -27 33 -18 38 17 11 8 48 -17 71 -12 12 -22
25 -22 30 0 15 -54 47 -73 42z m-2707 -1035 c1 8 30 -55 30 -63 0 -14 -22 0
-32 21 -6 14 -17 25 -25 25 -7 0 -13 2 -13 4 0 2 -3 13 -7 23 -7 17 -6 17 20
0 15 -9 27 -14 27 -10z m3247 -1244 c-15 -16 -17 -16 -17 -1 0 9 6 18 13 21
20 7 22 -2 4 -20z"/>
</g>
</svg>
